<svg width="21" height="24" viewBox="0 0 21 24" fill="none" xmlns="http://www.w3.org/2000/svg">
<g filter="url(#filter0_d_16038_22226)">
<path d="M8.24916 15.5767L13.5726 10.2958C13.7369 10.1328 13.7369 9.86718 13.5726 9.70419L8.24916 4.42333C7.80562 3.98334 7.80562 3.26998 8.24916 2.82999C8.69269 2.39 9.4118 2.39 9.85534 2.82999L16.785 9.70419C16.9493 9.86718 16.9493 10.1328 16.785 10.2958L9.85534 17.17C9.4118 17.61 8.69269 17.61 8.24916 17.17C7.80562 16.73 7.80562 16.0167 8.24916 15.5767Z" fill="white"/>
</g>
<rect x="5" y="10" width="3.33333" height="3.33333" rx="0.416667" transform="rotate(-45 5 10)" fill="white"/>
<defs>
<filter id="filter0_d_16038_22226" x="4.58317" y="1.66667" width="15.6584" height="21.6667" filterUnits="userSpaceOnUse" color-interpolation-filters="sRGB">
<feFlood flood-opacity="0" result="BackgroundImageFix"/>
<feColorMatrix in="SourceAlpha" type="matrix" values="0 0 0 0 0 0 0 0 0 0 0 0 0 0 0 0 0 0 127 0" result="hardAlpha"/>
<feOffset dy="2.5"/>
<feGaussianBlur stdDeviation="1.66667"/>
<feComposite in2="hardAlpha" operator="out"/>
<feColorMatrix type="matrix" values="0 0 0 0 0 0 0 0 0 0 0 0 0 0 0 0 0 0 0.25 0"/>
<feBlend mode="normal" in2="BackgroundImageFix" result="effect1_dropShadow_16038_22226"/>
<feBlend mode="normal" in="SourceGraphic" in2="effect1_dropShadow_16038_22226" result="shape"/>
</filter>
</defs>
</svg>
