<svg width="24" height="24" viewBox="0 0 24 24" fill="none" xmlns="http://www.w3.org/2000/svg">
<path d="M22 16.9111V20.84C22.0001 21.1213 21.8936 21.3922 21.7018 21.598C21.51 21.8038 21.2473 21.9292 20.9667 21.9489C20.4811 21.9822 20.0844 22 19.7778 22C9.95889 22 2 14.0411 2 4.22222C2 3.91556 2.01667 3.51889 2.05111 3.03333C2.0708 2.75272 2.1962 2.49001 2.402 2.29823C2.60781 2.10645 2.87869 1.99987 3.16 2H7.08889C7.22671 1.99986 7.35966 2.05095 7.46192 2.14336C7.56418 2.23576 7.62844 2.36287 7.64222 2.5C7.66778 2.75556 7.69111 2.95889 7.71333 3.11333C7.93415 4.65436 8.38667 6.15315 9.05556 7.55889C9.16111 7.78111 9.09222 8.04667 8.89222 8.18889C8.84959 8.21935 8.82828 8.23458 8.73055 8.31637C7.65487 9.21663 7.28586 11.3556 7.99773 12.5643C8.0624 12.6741 7.83014 12.3408 7.92305 12.4741C8.90294 13.88 10.1248 15.1014 11.531 16.0809C11.6671 16.1756 11.3269 15.9387 11.4349 16.0024C12.6448 16.7165 14.7867 16.3469 15.6874 15.2687C15.7678 15.1724 15.7818 15.1527 15.81 15.1133C15.8799 15.0156 15.982 14.9454 16.0983 14.9152C16.2147 14.8849 16.338 14.8965 16.4467 14.9478C17.8522 15.6154 19.3506 16.0668 20.8911 16.2867C21.0456 16.3089 21.2489 16.3333 21.5022 16.3578C21.6392 16.3718 21.766 16.4362 21.8582 16.5384C21.9503 16.6407 22.0002 16.7735 22 16.9111Z" fill="white"/>
</svg>
